<svg xmlns="http://www.w3.org/2000/svg" width="16" height="15.874" viewBox="0 0 16 15.874"><defs><style>.a{fill:#fbfbfb;}</style></defs><path class="a" d="M8.418,11.817v.659l.987.567a.418.418,0,1,1-.416.725L8,13.2l-.989.568a.418.418,0,0,1-.416-.725l.987-.567v-.659a.73.73,0,0,1-.088-.073l-1.2-1.183A.722.722,0,0,1,6.8,9.325H9.2a.722.722,0,0,1,.506,1.236l-1.2,1.183A.721.721,0,0,1,8.418,11.817Zm6.346-5.992c.461,1.2,1.913,5.438.267,7.481a9.944,9.944,0,0,1-5.315,2.952c-.171.045-.319.084-.409.113A4.562,4.562,0,0,1,8,16.628a4.566,4.566,0,0,1-1.307-.256c-.09-.029-.238-.068-.409-.113A9.944,9.944,0,0,1,.968,13.306c-1.646-2.043-.194-6.281.267-7.481A2.929,2.929,0,0,1,0,3.619C0,2.2,1.2.754,2.379.754h.047C3.205.782,3.854,1.6,4.2,2.124a2.134,2.134,0,0,1,1.116-.373h5.377a2.134,2.134,0,0,1,1.116.373C12.146,1.6,12.8.782,13.574.755h.047C14.8.754,16,2.2,16,3.619A2.928,2.928,0,0,1,14.764,5.825ZM5.247,8.009a1.216,1.216,0,0,0,1.174-.9.418.418,0,0,0-.18-.46L4.96,5.83a.418.418,0,0,0-.493.032,1.215,1.215,0,0,0,.78,2.148Zm5.68,3.505a3.5,3.5,0,0,0-1.541-2.9,2.327,2.327,0,0,0-2.771,0,3.5,3.5,0,0,0-1.541,2.9,2.953,2.953,0,0,0,2.319,2.917,2.045,2.045,0,0,0,1.215,0A2.953,2.953,0,0,0,10.926,11.515Zm1.043-4.721a1.213,1.213,0,0,0-.435-.932.418.418,0,0,0-.493-.032l-1.282.815a.418.418,0,0,0-.18.46,1.215,1.215,0,0,0,2.39-.311Z" transform="translate(0 -0.754)"/></svg>